<svg width="21.312500" height="23.109375" viewBox="0 0 21.3125 23.1094" fill="none"
    xmlns="http://www.w3.org/2000/svg" xmlns:xlink="http://www.w3.org/1999/xlink">
    <defs />
    <path id="Vector"
        d="M21.3125 11.625C21.3125 5.20312 16.543 0 10.6562 0C4.76953 0 0 5.20312 0 11.625C0 17.4272 3.89684 22.2366 8.99121 23.1094L8.99121 14.9854L6.28418 14.9854L6.28418 11.625L8.99121 11.625L8.99121 9.06372C8.99121 6.15039 10.5811 4.54126 13.0161 4.54126C14.1823 4.54126 15.4017 4.76807 15.4017 4.76807L15.4017 7.62744L14.0577 7.62744C12.7342 7.62744 12.3213 8.52368 12.3213 9.44287L12.3213 11.625L15.2767 11.625L14.804 14.9854L12.3213 14.9854L12.3213 23.1094C17.4157 22.2366 21.3125 17.4272 21.3125 11.625Z"
        fill="#FFFFFF" fill-opacity="1.000000" fill-rule="nonzero" />
</svg>