<svg width="22.012260" height="21.007080" viewBox="0 0 22.0123 21.0071" fill="none"
    xmlns="http://www.w3.org/2000/svg" xmlns:xlink="http://www.w3.org/1999/xlink">
    <defs />
    <path id="Vector"
        d="M11.0086 5.11768C7.88538 5.11768 5.36618 7.52222 5.36618 10.5034C5.36618 13.4849 7.88538 15.8894 11.0086 15.8894C14.1318 15.8894 16.651 13.4849 16.651 10.5034C16.651 7.52222 14.1318 5.11768 11.0086 5.11768ZM11.0086 14.0051C8.99028 14.0051 7.34029 12.4348 7.34029 10.5034C7.34029 8.57227 8.98537 7.00195 11.0086 7.00195C13.0318 7.00195 14.6769 8.57227 14.6769 10.5034C14.6769 12.4348 13.0269 14.0051 11.0086 14.0051ZM18.1979 4.89722C18.1979 5.5957 17.6086 6.15356 16.8818 6.15356C16.1501 6.15356 15.5657 5.59106 15.5657 4.89722C15.5657 4.20361 16.155 3.64111 16.8818 3.64111C17.6086 3.64111 18.1979 4.20361 18.1979 4.89722ZM21.9349 6.17236C21.8514 4.4895 21.4488 2.99878 20.1572 1.77075C18.8706 0.54248 17.309 0.158203 15.5461 0.0737305C13.7291 -0.0246582 8.28314 -0.0246582 6.46618 0.0737305C4.70815 0.153564 3.14654 0.537842 1.85502 1.76611C0.563503 2.99414 0.165737 4.48486 0.077343 6.16748C-0.0257816 7.90186 -0.0257816 13.1003 0.077343 14.8347C0.160826 16.5176 0.563503 18.0083 1.85502 19.2363C3.14654 20.4644 4.70323 20.8489 6.46618 20.9331C8.28314 21.0317 13.7291 21.0317 15.5461 20.9331C17.309 20.8535 18.8706 20.4692 20.1572 19.2363C21.4438 18.0083 21.8465 16.5176 21.9349 14.8347C22.038 13.1003 22.038 7.90674 21.9349 6.17236ZM19.5876 16.6958C19.2046 17.6145 18.463 18.3223 17.4956 18.6926C16.047 19.241 12.6095 19.1145 11.0086 19.1145C9.40769 19.1145 5.96529 19.2363 4.52154 18.6926C3.55904 18.3269 2.81752 17.6191 2.42957 16.6958C1.85502 15.313 1.98761 12.0317 1.98761 10.5034C1.98761 8.97534 1.85993 5.68945 2.42957 4.31128C2.81261 3.39258 3.55413 2.68481 4.52154 2.31445C5.9702 1.76611 9.40769 1.89258 11.0086 1.89258C12.6095 1.89258 16.0519 1.77075 17.4956 2.31445C18.4581 2.68018 19.1997 3.38794 19.5876 4.31128C20.1622 5.69409 20.0296 8.97534 20.0296 10.5034C20.0296 12.0317 20.1622 15.3176 19.5876 16.6958Z"
        fill="#FFFFFF" fill-opacity="1.000000" fill-rule="nonzero" />
</svg>