<svg width="22.000000" height="23.250000" viewBox="0 0 22 23.25" fill="none"
    xmlns="http://www.w3.org/2000/svg" xmlns:xlink="http://www.w3.org/1999/xlink">
    <defs />
    <path id="Vector"
        d="M11 0C4.92339 0 0 5.20312 0 11.625C0 18.0469 4.92339 23.25 11 23.25C17.0766 23.25 22 18.0469 22 11.625C22 5.20312 17.0766 0 11 0ZM16.4024 7.96411L14.5972 16.9546C14.4641 17.5923 14.1048 17.7468 13.6036 17.4468L10.8536 15.3047L9.52742 16.6548C9.38105 16.8093 9.25686 16.9407 8.97298 16.9407L9.16814 13.9829L14.2645 9.11719C14.4863 8.91089 14.2157 8.7937 13.923 9L7.6246 13.1907L4.91008 12.2954C4.32016 12.0984 4.30685 11.6719 5.03428 11.3718L15.6395 7.05005C16.1319 6.86255 16.5621 7.17651 16.4024 7.96411Z"
        fill="#FFFFFF" fill-opacity="1.000000" fill-rule="nonzero" />
</svg>